<?xml version="1.0" encoding="UTF-8"?>
<svg xmlns="http://www.w3.org/2000/svg" xmlns:xlink="http://www.w3.org/1999/xlink" width="32px" height="32px" viewBox="0 0 32 32" version="1.1">
    <title>Vite Logo</title>
    <g stroke="none" stroke-width="1" fill="none" fill-rule="evenodd">
        <path d="M29.8836,7.731 L16.7420955,29.2770855 C16.4457354,29.7614137 15.7975532,29.8897395 15.3132251,29.5933794 C15.1848993,29.518674 15.0723375,29.4175657 14.9820787,29.2964137 L2.11636017,7.731 C1.80583825,7.25463615 1.91416547,6.60282825 2.39052932,6.29230633 C2.56291039,6.17777932 2.76766088,6.11637954 2.97852944,6.11637954 L29.0214664,6.11637954 C29.5737512,6.11637954 30.0214664,6.56409475 30.0214664,7.11637954 C30.0214664,7.32724809 29.9600666,7.53199859 29.8455396,7.70437966 L29.8836,7.731 Z" fill="#646CFF"/>
        <path d="M16.0098314,10.5607092 L20.8412649,17.5918878 C21.1546097,18.0608836 21.0340826,18.7197253 20.5650868,19.0330702 C20.3873703,19.1538241 20.1765067,19.2183278 19.9605645,19.2183278 L10.2976976,19.2183278 C9.74541277,19.2183278 9.29769757,18.7706126 9.29769757,18.2183278 C9.29769757,18.0023856 9.36220124,17.791522 9.48295517,17.6138055 L14.3143886,10.5826269 C14.6277335,10.1136311 15.2865752,9.99310397 15.755571,10.3064488 C15.8521488,10.3725272 15.9374635,10.4541324 16.0098314,10.5607092 Z" fill="#646CFF"/>
    </g>
</svg>